<?xml version="1.0" encoding="utf-8"?>
<!-- Generator: Adobe Illustrator 18.1.0, SVG Export Plug-In . SVG Version: 6.00 Build 0)  -->
<!DOCTYPE svg PUBLIC "-//W3C//DTD SVG 1.1 Tiny//EN" "http://www.w3.org/Graphics/SVG/1.1/DTD/svg11-tiny.dtd">
<svg version="1.1" baseProfile="tiny" id="Livello_1"
	 xmlns="http://www.w3.org/2000/svg" xmlns:xlink="http://www.w3.org/1999/xlink" x="0px" y="0px" viewBox="0 0 200 200"
	 xml:space="preserve">
<g>
	<polygon display="none" fill-rule="evenodd" points="-28.3,23.7 156,23.7 156,208 -28.3,208 -28.3,23.7 	"/>
	<polygon display="none" fill-rule="evenodd" points="-11.6,26.4 139.3,26.4 139.3,162.9 63.8,205.3 -11.6,162.9 -11.6,26.4 	"/>
	<polygon display="none" fill-rule="evenodd" points="-11.6,162.9 -11.6,26.4 63.8,26.4 63.8,205.3 -11.6,162.9 	"/>
	<polygon display="none" fill-rule="evenodd" points="-11.6,115.7 -11.6,78 8.2,78 8.2,26.4 45.9,26.4 45.9,78 63.8,78 63.8,115.7 
		45.9,115.7 45.9,195.2 8.2,174 8.2,115.7 -11.6,115.7 	"/>
	<path fill-rule="evenodd" d="M139.3,83.4v35.4c-5,0-10.2-0.8-14.3-1.5c-0.8,9.4,1.9,16,2.8,28.9c1.4,4.1,0.1,5.9-1.1,9.6
		c-0.3,0.9-0.4,3.9-0.8,4.9l-7.4,0c0-1.7,0.8-3.3,1.7-4.8c0.9-1.5,1.3-1.9,3.2-2.7c0-3.3-1.1-16.3-5.6-22.2c-2.4-5-4.1-10-4.1-15.5
		c-3.9-1.7-3.5-1.4-7.9-1.4c0,6.6-19.7,2.5-23.6,4.7c-1.3,1.4-2.6,1.9-3.5,3.7c-0.6,3.5-1.3,8.6-1.3,13c3.5,0.3,4.4,1,6.4,2.2
		l-0.2,8.8c-3-1.6-5.6-3-6.7-4.8c-0.9-0.6-2.8-1.6-3.6-3.1c0-5.5-0.2-13.4,0.6-18.2c0.4-1.7,3-5.3,4-6.5c3.9-1.7,11.4-3.8,14.7-7.1
		C88.4,98,89,94,89.8,86.8c0.5-4.7-0.2-9.9-0.8-16.1c-0.2-1.9-0.9-5-2.6-3.5l-3.5,10c-0.9,2.3-6.1,1.2-6.3-0.6
		c-0.2-2.3,0-6.4,0-10.1c0.1-4.2,0.4-8.9,1.1-13.7c-0.2-0.1-0.3-1.4-0.2-1.9c0.2-0.7,0.2-1.1-0.9-0.5c0-1.4,0.9-2.9,1.5-3.7
		c-0.1-2.5-0.4-3.6-0.3-5.5c0.6,0.3,2.9,3.2,3.7,4c0.4-1.4,0.7-3.4,1.3-4.4c1.4,1.8,1.6,3.8,5.3,6.2c16,8.2,24.4,24.6,27.6,30.1
		c1.1,2.6,3.5,4,6.5,4.8C127.5,82.7,135.4,82.5,139.3,83.4L139.3,83.4z M82.8,148.5c3.5,0,6.3,2.8,6.3,6.3c0,3.5-2.8,6.3-6.3,6.3
		c-3.5,0-6.3-2.8-6.3-6.3C76.5,151.3,79.4,148.5,82.8,148.5L82.8,148.5z"/>
	<polygon display="none" stroke="#E42313" stroke-width="0.9917" stroke-miterlimit="2.6131" points="-11.6,26.4 139.3,26.4 
		139.3,162.9 63.8,205.3 -11.6,162.9 -11.6,26.4 	"/>
</g>
</svg>
